<mxfile host="app.diagrams.net" modified="2022-04-22T06:48:29.049Z" agent="5.0 (Windows NT 10.0; Win64; x64) AppleWebKit/537.36 (KHTML, like Gecko) Chrome/100.0.4896.127 Safari/537.36" etag="RwdbThW8o-KYStocyQj8" version="17.4.3" type="github" pages="5">
  <diagram id="prtHgNgQTEPvFCAcTncT" name="Create">
    <mxGraphModel dx="1422" dy="705" grid="1" gridSize="10" guides="1" tooltips="1" connect="1" arrows="1" fold="1" page="1" pageScale="1" pageWidth="827" pageHeight="1169" math="0" shadow="0">
      <root>
        <mxCell id="0" />
        <mxCell id="1" parent="0" />
        <mxCell id="3E9huD4oho58RNo_yzY4-2" value="&lt;div&gt;Asynchronous threads&lt;/div&gt;" style="rounded=0;whiteSpace=wrap;html=1;fontSize=10;dashed=1;fillColor=#eeeeee;strokeColor=#36393d;" parent="1" vertex="1">
          <mxGeometry x="1060" y="640" width="360" height="200" as="geometry" />
        </mxCell>
        <mxCell id="7mvyjp9xPnYA-74Ss-xC-5" value="" style="edgeStyle=orthogonalEdgeStyle;rounded=0;orthogonalLoop=1;jettySize=auto;html=1;fillColor=#ffe6cc;strokeColor=#d79b00;exitX=0.5;exitY=1;exitDx=0;exitDy=0;" parent="1" source="Le4Tirno8PLqzlybWpBK-1" target="7mvyjp9xPnYA-74Ss-xC-4" edge="1">
          <mxGeometry relative="1" as="geometry">
            <mxPoint x="170" y="520" as="sourcePoint" />
          </mxGeometry>
        </mxCell>
        <mxCell id="7mvyjp9xPnYA-74Ss-xC-33" style="edgeStyle=orthogonalEdgeStyle;rounded=0;orthogonalLoop=1;jettySize=auto;html=1;exitX=1;exitY=0.5;exitDx=0;exitDy=0;entryX=0;entryY=0.5;entryDx=0;entryDy=0;fillColor=#ffe6cc;strokeColor=#d79b00;" parent="1" source="7mvyjp9xPnYA-74Ss-xC-4" target="7mvyjp9xPnYA-74Ss-xC-18" edge="1">
          <mxGeometry relative="1" as="geometry" />
        </mxCell>
        <mxCell id="7mvyjp9xPnYA-74Ss-xC-4" value="VLANNetworkSyncedValidator" style="whiteSpace=wrap;html=1;fillColor=#ffe6cc;strokeColor=#d79b00;" parent="1" vertex="1">
          <mxGeometry x="80" y="560" width="180" height="60" as="geometry" />
        </mxCell>
        <mxCell id="7mvyjp9xPnYA-74Ss-xC-9" value="" style="edgeStyle=orthogonalEdgeStyle;rounded=0;orthogonalLoop=1;jettySize=auto;html=1;exitX=0;exitY=0.5;exitDx=0;exitDy=0;entryX=0.5;entryY=0;entryDx=0;entryDy=0;fillColor=#ffe6cc;strokeColor=#d79b00;" parent="1" source="7mvyjp9xPnYA-74Ss-xC-31" target="7mvyjp9xPnYA-74Ss-xC-8" edge="1">
          <mxGeometry relative="1" as="geometry" />
        </mxCell>
        <mxCell id="7mvyjp9xPnYA-74Ss-xC-28" value="" style="edgeStyle=orthogonalEdgeStyle;rounded=0;orthogonalLoop=1;jettySize=auto;html=1;fillColor=#ffe6cc;strokeColor=#d79b00;" parent="1" source="7mvyjp9xPnYA-74Ss-xC-6" target="7mvyjp9xPnYA-74Ss-xC-27" edge="1">
          <mxGeometry relative="1" as="geometry" />
        </mxCell>
        <mxCell id="7mvyjp9xPnYA-74Ss-xC-6" value="VLANNetworksSyntaxValidator" style="whiteSpace=wrap;html=1;fillColor=#ffe6cc;strokeColor=#d79b00;" parent="1" vertex="1">
          <mxGeometry x="80" y="700" width="180" height="60" as="geometry" />
        </mxCell>
        <mxCell id="7mvyjp9xPnYA-74Ss-xC-36" value="" style="edgeStyle=orthogonalEdgeStyle;rounded=0;orthogonalLoop=1;jettySize=auto;html=1;fillColor=#ffe6cc;strokeColor=#d79b00;" parent="1" source="7mvyjp9xPnYA-74Ss-xC-8" target="7mvyjp9xPnYA-74Ss-xC-35" edge="1">
          <mxGeometry relative="1" as="geometry" />
        </mxCell>
        <mxCell id="7mvyjp9xPnYA-74Ss-xC-8" value="PrerequisiteValidator" style="whiteSpace=wrap;html=1;fillColor=#ffe6cc;strokeColor=#d79b00;" parent="1" vertex="1">
          <mxGeometry x="80" y="840" width="180" height="60" as="geometry" />
        </mxCell>
        <mxCell id="7mvyjp9xPnYA-74Ss-xC-49" style="edgeStyle=orthogonalEdgeStyle;rounded=0;orthogonalLoop=1;jettySize=auto;html=1;exitX=1;exitY=0.5;exitDx=0;exitDy=0;entryX=0;entryY=0.5;entryDx=0;entryDy=0;fillColor=#ffe6cc;strokeColor=#d79b00;" parent="1" source="7mvyjp9xPnYA-74Ss-xC-10" target="7mvyjp9xPnYA-74Ss-xC-50" edge="1">
          <mxGeometry relative="1" as="geometry">
            <mxPoint x="320" y="1110" as="targetPoint" />
          </mxGeometry>
        </mxCell>
        <mxCell id="7mvyjp9xPnYA-74Ss-xC-10" value="VLANNetworkPostValidator" style="whiteSpace=wrap;html=1;fillColor=#ffe6cc;strokeColor=#d79b00;" parent="1" vertex="1">
          <mxGeometry x="80" y="1080" width="180" height="60" as="geometry" />
        </mxCell>
        <mxCell id="7mvyjp9xPnYA-74Ss-xC-77" style="edgeStyle=orthogonalEdgeStyle;rounded=0;orthogonalLoop=1;jettySize=auto;html=1;exitX=1;exitY=0.5;exitDx=0;exitDy=0;entryX=0;entryY=0.5;entryDx=0;entryDy=0;fillColor=#ffe6cc;strokeColor=#d79b00;" parent="1" source="7mvyjp9xPnYA-74Ss-xC-12" target="7mvyjp9xPnYA-74Ss-xC-76" edge="1">
          <mxGeometry relative="1" as="geometry" />
        </mxCell>
        <mxCell id="7mvyjp9xPnYA-74Ss-xC-12" value="VLANNetworkIpsValidator" style="whiteSpace=wrap;html=1;fillColor=#ffe6cc;strokeColor=#d79b00;" parent="1" vertex="1">
          <mxGeometry x="80" y="1352" width="180" height="60" as="geometry" />
        </mxCell>
        <mxCell id="7mvyjp9xPnYA-74Ss-xC-25" value="N" style="edgeStyle=orthogonalEdgeStyle;rounded=0;orthogonalLoop=1;jettySize=auto;html=1;exitX=1;exitY=0.5;exitDx=0;exitDy=0;entryX=0;entryY=0.5;entryDx=0;entryDy=0;curved=1;strokeColor=#FFCE9F;" parent="1" source="7mvyjp9xPnYA-74Ss-xC-18" target="7mvyjp9xPnYA-74Ss-xC-24" edge="1">
          <mxGeometry relative="1" as="geometry">
            <Array as="points">
              <mxPoint x="650" y="590" />
              <mxPoint x="650" y="920" />
            </Array>
          </mxGeometry>
        </mxCell>
        <mxCell id="7mvyjp9xPnYA-74Ss-xC-26" value="Y" style="edgeStyle=orthogonalEdgeStyle;rounded=0;orthogonalLoop=1;jettySize=auto;html=1;exitX=0.5;exitY=1;exitDx=0;exitDy=0;entryX=0.5;entryY=0;entryDx=0;entryDy=0;fillColor=#ffe6cc;strokeColor=#d79b00;" parent="1" source="7mvyjp9xPnYA-74Ss-xC-18" target="7mvyjp9xPnYA-74Ss-xC-6" edge="1">
          <mxGeometry relative="1" as="geometry" />
        </mxCell>
        <mxCell id="7mvyjp9xPnYA-74Ss-xC-18" value="VLANNetworkUtil.lock&lt;br&gt;And VLAN is not Applying" style="rhombus;whiteSpace=wrap;html=1;fillColor=#ffe6cc;strokeColor=#d79b00;" parent="1" vertex="1">
          <mxGeometry x="310" y="560" width="195" height="60" as="geometry" />
        </mxCell>
        <mxCell id="7mvyjp9xPnYA-74Ss-xC-24" value="Validate Fail" style="ellipse;whiteSpace=wrap;html=1;aspect=fixed;fillColor=#ffe6cc;strokeColor=#d79b00;" parent="1" vertex="1">
          <mxGeometry x="690" y="880" width="80" height="80" as="geometry" />
        </mxCell>
        <mxCell id="7mvyjp9xPnYA-74Ss-xC-29" style="edgeStyle=orthogonalEdgeStyle;rounded=0;orthogonalLoop=1;jettySize=auto;html=1;exitX=1;exitY=0.5;exitDx=0;exitDy=0;elbow=vertical;entryX=0;entryY=0.5;entryDx=0;entryDy=0;curved=1;strokeColor=#FFCE9F;" parent="1" source="7mvyjp9xPnYA-74Ss-xC-27" target="7mvyjp9xPnYA-74Ss-xC-24" edge="1">
          <mxGeometry relative="1" as="geometry" />
        </mxCell>
        <mxCell id="7mvyjp9xPnYA-74Ss-xC-30" value="N" style="edgeLabel;html=1;align=center;verticalAlign=middle;resizable=0;points=[];" parent="7mvyjp9xPnYA-74Ss-xC-29" vertex="1" connectable="0">
          <mxGeometry x="-0.2667" relative="1" as="geometry">
            <mxPoint x="-5" y="11" as="offset" />
          </mxGeometry>
        </mxCell>
        <mxCell id="7mvyjp9xPnYA-74Ss-xC-32" value="" style="edgeStyle=orthogonalEdgeStyle;rounded=0;orthogonalLoop=1;jettySize=auto;html=1;fillColor=#ffe6cc;strokeColor=#d79b00;" parent="1" source="7mvyjp9xPnYA-74Ss-xC-27" target="7mvyjp9xPnYA-74Ss-xC-31" edge="1">
          <mxGeometry relative="1" as="geometry" />
        </mxCell>
        <mxCell id="7mvyjp9xPnYA-74Ss-xC-27" value="Request body valid" style="rhombus;whiteSpace=wrap;html=1;fillColor=#ffe6cc;strokeColor=#d79b00;" parent="1" vertex="1">
          <mxGeometry x="312.5" y="700" width="190" height="60" as="geometry" />
        </mxCell>
        <mxCell id="7mvyjp9xPnYA-74Ss-xC-31" value="RESTValidationResult.&lt;br&gt;setUpdatedObject" style="whiteSpace=wrap;html=1;fillColor=#ffe6cc;strokeColor=#d79b00;" parent="1" vertex="1">
          <mxGeometry x="347.5" y="779" width="120" height="51" as="geometry" />
        </mxCell>
        <mxCell id="7mvyjp9xPnYA-74Ss-xC-37" value="N" style="edgeStyle=orthogonalEdgeStyle;rounded=0;orthogonalLoop=1;jettySize=auto;html=1;exitX=1;exitY=0.5;exitDx=0;exitDy=0;entryX=0;entryY=0.5;entryDx=0;entryDy=0;curved=1;strokeColor=#FFCE9F;" parent="1" source="7mvyjp9xPnYA-74Ss-xC-35" target="7mvyjp9xPnYA-74Ss-xC-24" edge="1">
          <mxGeometry relative="1" as="geometry" />
        </mxCell>
        <mxCell id="7mvyjp9xPnYA-74Ss-xC-41" value="Y" style="edgeStyle=orthogonalEdgeStyle;rounded=0;orthogonalLoop=1;jettySize=auto;html=1;" parent="1" source="7mvyjp9xPnYA-74Ss-xC-35" target="7mvyjp9xPnYA-74Ss-xC-40" edge="1">
          <mxGeometry relative="1" as="geometry" />
        </mxCell>
        <mxCell id="7mvyjp9xPnYA-74Ss-xC-35" value="Is Hosted vCenter available" style="rhombus;whiteSpace=wrap;html=1;fillColor=#ffe6cc;strokeColor=#d79b00;" parent="1" vertex="1">
          <mxGeometry x="312.5" y="840" width="190" height="60" as="geometry" />
        </mxCell>
        <mxCell id="7mvyjp9xPnYA-74Ss-xC-42" value="N" style="edgeStyle=orthogonalEdgeStyle;rounded=0;orthogonalLoop=1;jettySize=auto;html=1;exitX=1;exitY=0.5;exitDx=0;exitDy=0;entryX=0;entryY=0.5;entryDx=0;entryDy=0;curved=1;strokeColor=#FFCE9F;" parent="1" source="7mvyjp9xPnYA-74Ss-xC-40" target="7mvyjp9xPnYA-74Ss-xC-24" edge="1">
          <mxGeometry relative="1" as="geometry" />
        </mxCell>
        <mxCell id="7mvyjp9xPnYA-74Ss-xC-45" value="Y" style="edgeStyle=orthogonalEdgeStyle;rounded=0;orthogonalLoop=1;jettySize=auto;html=1;" parent="1" source="7mvyjp9xPnYA-74Ss-xC-40" target="7mvyjp9xPnYA-74Ss-xC-44" edge="1">
          <mxGeometry relative="1" as="geometry" />
        </mxCell>
        <mxCell id="7mvyjp9xPnYA-74Ss-xC-40" value="0&amp;lt;=VLAN ID &amp;lt;=4094" style="rhombus;whiteSpace=wrap;html=1;fillColor=#ffe6cc;strokeColor=#d79b00;" parent="1" vertex="1">
          <mxGeometry x="312.5" y="920" width="190" height="50" as="geometry" />
        </mxCell>
        <mxCell id="7mvyjp9xPnYA-74Ss-xC-46" value="N" style="edgeStyle=orthogonalEdgeStyle;rounded=0;orthogonalLoop=1;jettySize=auto;html=1;exitX=1;exitY=0.5;exitDx=0;exitDy=0;entryX=0;entryY=0.5;entryDx=0;entryDy=0;curved=1;strokeColor=#FFCE9F;" parent="1" source="7mvyjp9xPnYA-74Ss-xC-44" target="7mvyjp9xPnYA-74Ss-xC-24" edge="1">
          <mxGeometry relative="1" as="geometry" />
        </mxCell>
        <mxCell id="7mvyjp9xPnYA-74Ss-xC-47" value="Y" style="edgeStyle=orthogonalEdgeStyle;rounded=0;orthogonalLoop=1;jettySize=auto;html=1;exitX=0;exitY=0.5;exitDx=0;exitDy=0;entryX=0.5;entryY=0;entryDx=0;entryDy=0;fillColor=#ffe6cc;strokeColor=#d79b00;" parent="1" source="7mvyjp9xPnYA-74Ss-xC-44" target="7mvyjp9xPnYA-74Ss-xC-10" edge="1">
          <mxGeometry relative="1" as="geometry" />
        </mxCell>
        <mxCell id="7mvyjp9xPnYA-74Ss-xC-44" value="PortGroup for vid exist" style="rhombus;whiteSpace=wrap;html=1;fillColor=#ffe6cc;strokeColor=#d79b00;" parent="1" vertex="1">
          <mxGeometry x="312.5" y="990" width="190" height="50" as="geometry" />
        </mxCell>
        <mxCell id="7mvyjp9xPnYA-74Ss-xC-53" style="edgeStyle=orthogonalEdgeStyle;rounded=0;orthogonalLoop=1;jettySize=auto;html=1;exitX=0.5;exitY=1;exitDx=0;exitDy=0;entryX=0.5;entryY=0;entryDx=0;entryDy=0;" parent="1" source="7mvyjp9xPnYA-74Ss-xC-50" target="7mvyjp9xPnYA-74Ss-xC-52" edge="1">
          <mxGeometry relative="1" as="geometry" />
        </mxCell>
        <mxCell id="7mvyjp9xPnYA-74Ss-xC-50" value="set IpAddressFamily，&lt;br&gt;Purposes&lt;br&gt;" style="whiteSpace=wrap;html=1;fillColor=#ffe6cc;strokeColor=#d79b00;" parent="1" vertex="1">
          <mxGeometry x="347.5" y="1084.5" width="120" height="51" as="geometry" />
        </mxCell>
        <mxCell id="7mvyjp9xPnYA-74Ss-xC-54" value="N" style="edgeStyle=orthogonalEdgeStyle;rounded=0;orthogonalLoop=1;jettySize=auto;html=1;exitX=1;exitY=0.5;exitDx=0;exitDy=0;entryX=0;entryY=0.5;entryDx=0;entryDy=0;curved=1;strokeColor=#FFCE9F;" parent="1" source="7mvyjp9xPnYA-74Ss-xC-52" target="7mvyjp9xPnYA-74Ss-xC-24" edge="1">
          <mxGeometry x="-0.0673" relative="1" as="geometry">
            <Array as="points">
              <mxPoint x="620" y="1185" />
              <mxPoint x="620" y="920" />
            </Array>
            <mxPoint y="1" as="offset" />
          </mxGeometry>
        </mxCell>
        <mxCell id="7mvyjp9xPnYA-74Ss-xC-57" value="" style="edgeStyle=orthogonalEdgeStyle;rounded=0;orthogonalLoop=1;jettySize=auto;html=1;" parent="1" source="7mvyjp9xPnYA-74Ss-xC-52" target="7mvyjp9xPnYA-74Ss-xC-56" edge="1">
          <mxGeometry relative="1" as="geometry" />
        </mxCell>
        <mxCell id="7mvyjp9xPnYA-74Ss-xC-52" value="network_id != null&lt;br&gt;or name == empty&lt;br&gt;or vlanId&amp;lt; 1 or vlanId&amp;gt;4094" style="rhombus;whiteSpace=wrap;html=1;fillColor=#ffe6cc;strokeColor=#d79b00;" parent="1" vertex="1">
          <mxGeometry x="312.5" y="1160" width="190" height="50" as="geometry" />
        </mxCell>
        <mxCell id="7mvyjp9xPnYA-74Ss-xC-74" value="N" style="edgeStyle=orthogonalEdgeStyle;curved=1;rounded=0;orthogonalLoop=1;jettySize=auto;html=1;exitX=1;exitY=0.5;exitDx=0;exitDy=0;entryX=0;entryY=0.5;entryDx=0;entryDy=0;strokeColor=#FFCE9F;" parent="1" source="7mvyjp9xPnYA-74Ss-xC-56" target="7mvyjp9xPnYA-74Ss-xC-24" edge="1">
          <mxGeometry relative="1" as="geometry">
            <Array as="points">
              <mxPoint x="640" y="1275" />
              <mxPoint x="640" y="920" />
            </Array>
          </mxGeometry>
        </mxCell>
        <mxCell id="7mvyjp9xPnYA-74Ss-xC-75" style="edgeStyle=orthogonalEdgeStyle;rounded=0;orthogonalLoop=1;jettySize=auto;html=1;exitX=0;exitY=0.5;exitDx=0;exitDy=0;entryX=0.5;entryY=0;entryDx=0;entryDy=0;fillColor=#ffe6cc;strokeColor=#d79b00;" parent="1" source="7mvyjp9xPnYA-74Ss-xC-56" target="7mvyjp9xPnYA-74Ss-xC-12" edge="1">
          <mxGeometry relative="1" as="geometry" />
        </mxCell>
        <mxCell id="7mvyjp9xPnYA-74Ss-xC-56" value="vlan is not exist,&lt;br&gt;Netmask, Prefix, Purposes,&amp;nbsp;&lt;br&gt;IP, Routes, MTU,&amp;nbsp; vmNetworkName&amp;nbsp;&lt;br&gt;&amp;nbsp;valid" style="rhombus;whiteSpace=wrap;html=1;fillColor=#ffe6cc;strokeColor=#d79b00;" parent="1" vertex="1">
          <mxGeometry x="293.75" y="1230" width="227.5" height="100" as="geometry" />
        </mxCell>
        <mxCell id="7mvyjp9xPnYA-74Ss-xC-80" value="Y" style="edgeStyle=orthogonalEdgeStyle;rounded=0;orthogonalLoop=1;jettySize=auto;html=1;exitX=0.5;exitY=1;exitDx=0;exitDy=0;" parent="1" source="7mvyjp9xPnYA-74Ss-xC-76" target="7mvyjp9xPnYA-74Ss-xC-79" edge="1">
          <mxGeometry relative="1" as="geometry" />
        </mxCell>
        <mxCell id="3E9huD4oho58RNo_yzY4-1" value="N" style="edgeStyle=orthogonalEdgeStyle;curved=1;rounded=0;orthogonalLoop=1;jettySize=auto;html=1;exitX=1;exitY=0.5;exitDx=0;exitDy=0;entryX=0;entryY=0.5;entryDx=0;entryDy=0;fontSize=10;strokeColor=#FFCE9F;fillColor=#ffcc99;" parent="1" source="7mvyjp9xPnYA-74Ss-xC-76" target="7mvyjp9xPnYA-74Ss-xC-24" edge="1">
          <mxGeometry relative="1" as="geometry">
            <Array as="points">
              <mxPoint x="660" y="1382" />
              <mxPoint x="660" y="920" />
            </Array>
          </mxGeometry>
        </mxCell>
        <mxCell id="7mvyjp9xPnYA-74Ss-xC-76" value="IP Number &amp;lt; PPDM + Search nodes IPs needs" style="rhombus;whiteSpace=wrap;html=1;fillColor=#ffe6cc;strokeColor=#d79b00;" parent="1" vertex="1">
          <mxGeometry x="312.5" y="1357" width="190" height="50" as="geometry" />
        </mxCell>
        <mxCell id="7mvyjp9xPnYA-74Ss-xC-79" value="Validation Completed" style="ellipse;whiteSpace=wrap;html=1;aspect=fixed;fillColor=#ffe6cc;strokeColor=#d79b00;" parent="1" vertex="1">
          <mxGeometry x="367.5" y="1452" width="80" height="80" as="geometry" />
        </mxCell>
        <mxCell id="7mvyjp9xPnYA-74Ss-xC-84" value="" style="edgeStyle=orthogonalEdgeStyle;rounded=0;orthogonalLoop=1;jettySize=auto;html=1;fontSize=10;" parent="1" source="7mvyjp9xPnYA-74Ss-xC-82" target="7mvyjp9xPnYA-74Ss-xC-83" edge="1">
          <mxGeometry relative="1" as="geometry" />
        </mxCell>
        <mxCell id="7mvyjp9xPnYA-74Ss-xC-82" value="VLANNetworksController&lt;br style=&quot;font-size: 10px;&quot;&gt;POST /api/v2/networks" style="rounded=0;whiteSpace=wrap;html=1;fontSize=10;" parent="1" vertex="1">
          <mxGeometry x="340" y="60" width="120" height="60" as="geometry" />
        </mxCell>
        <mxCell id="7mvyjp9xPnYA-74Ss-xC-83" value="PostVLANNetworksHandler&lt;br&gt;Validators" style="rounded=0;whiteSpace=wrap;html=1;fontSize=10;fillColor=#ffe6cc;strokeColor=#d79b00;" parent="1" vertex="1">
          <mxGeometry x="540" y="60" width="120" height="60" as="geometry" />
        </mxCell>
        <mxCell id="7mvyjp9xPnYA-74Ss-xC-88" value="" style="edgeStyle=orthogonalEdgeStyle;rounded=0;orthogonalLoop=1;jettySize=auto;html=1;fontSize=10;exitX=1;exitY=0.5;exitDx=0;exitDy=0;" parent="1" source="7mvyjp9xPnYA-74Ss-xC-83" target="7mvyjp9xPnYA-74Ss-xC-87" edge="1">
          <mxGeometry relative="1" as="geometry">
            <mxPoint x="660" y="90" as="sourcePoint" />
          </mxGeometry>
        </mxCell>
        <mxCell id="7mvyjp9xPnYA-74Ss-xC-90" value="" style="edgeStyle=orthogonalEdgeStyle;rounded=0;orthogonalLoop=1;jettySize=auto;html=1;fontSize=10;" parent="1" source="7mvyjp9xPnYA-74Ss-xC-87" target="7mvyjp9xPnYA-74Ss-xC-89" edge="1">
          <mxGeometry relative="1" as="geometry" />
        </mxCell>
        <mxCell id="7mvyjp9xPnYA-74Ss-xC-87" value="VLANNetworkUtil&lt;br&gt;initPpdmUsage" style="rounded=0;whiteSpace=wrap;html=1;fontSize=10;" parent="1" vertex="1">
          <mxGeometry x="740" y="60" width="120" height="60" as="geometry" />
        </mxCell>
        <mxCell id="7mvyjp9xPnYA-74Ss-xC-98" value="" style="edgeStyle=orthogonalEdgeStyle;rounded=0;orthogonalLoop=1;jettySize=auto;html=1;fontSize=10;" parent="1" source="7mvyjp9xPnYA-74Ss-xC-89" target="7mvyjp9xPnYA-74Ss-xC-97" edge="1">
          <mxGeometry relative="1" as="geometry" />
        </mxCell>
        <mxCell id="7mvyjp9xPnYA-74Ss-xC-89" value="VLANNetworkUtil&lt;br&gt;initSearchUsages" style="rounded=0;whiteSpace=wrap;html=1;fontSize=10;" parent="1" vertex="1">
          <mxGeometry x="740" y="170" width="120" height="60" as="geometry" />
        </mxCell>
        <mxCell id="7mvyjp9xPnYA-74Ss-xC-93" value="" style="edgeStyle=orthogonalEdgeStyle;rounded=0;orthogonalLoop=1;jettySize=auto;html=1;fontSize=10;" parent="1" source="7mvyjp9xPnYA-74Ss-xC-91" target="7mvyjp9xPnYA-74Ss-xC-92" edge="1">
          <mxGeometry relative="1" as="geometry" />
        </mxCell>
        <mxCell id="7mvyjp9xPnYA-74Ss-xC-91" value="PPDM Usage" style="ellipse;whiteSpace=wrap;html=1;aspect=fixed;fontSize=10;" parent="1" vertex="1">
          <mxGeometry x="920" y="50" width="80" height="80" as="geometry" />
        </mxCell>
        <mxCell id="7mvyjp9xPnYA-74Ss-xC-92" value="!configurationService.isConfigTypeIntegratedAppliance() &amp;amp;&amp;amp; !isNetworkDataPurpose(vlanNetwork.getPurposes())" style="rhombus;whiteSpace=wrap;html=1;fontSize=10;" parent="1" vertex="1">
          <mxGeometry x="1080" y="50" width="360" height="80" as="geometry" />
        </mxCell>
        <mxCell id="7mvyjp9xPnYA-74Ss-xC-94" value="" style="edgeStyle=orthogonalEdgeStyle;rounded=0;orthogonalLoop=1;jettySize=auto;html=1;fontSize=10;" parent="1" source="7mvyjp9xPnYA-74Ss-xC-95" target="7mvyjp9xPnYA-74Ss-xC-96" edge="1">
          <mxGeometry relative="1" as="geometry" />
        </mxCell>
        <mxCell id="7mvyjp9xPnYA-74Ss-xC-95" value="Search Usage" style="ellipse;whiteSpace=wrap;html=1;aspect=fixed;fontSize=10;" parent="1" vertex="1">
          <mxGeometry x="910" y="180" width="80" height="80" as="geometry" />
        </mxCell>
        <mxCell id="7mvyjp9xPnYA-74Ss-xC-96" value="&lt;div&gt;searchIds not empty and Purposes contains MANAGEMENT_DATA and&lt;/div&gt;&lt;div&gt;&amp;nbsp; &amp;nbsp; &amp;nbsp; &amp;nbsp; &amp;nbsp; &amp;nbsp; not appliance&lt;/div&gt;" style="rhombus;whiteSpace=wrap;html=1;fontSize=10;" parent="1" vertex="1">
          <mxGeometry x="1087" y="170" width="260" height="100" as="geometry" />
        </mxCell>
        <mxCell id="7mvyjp9xPnYA-74Ss-xC-101" value="" style="edgeStyle=orthogonalEdgeStyle;rounded=0;orthogonalLoop=1;jettySize=auto;html=1;fontSize=10;" parent="1" source="7mvyjp9xPnYA-74Ss-xC-97" target="7mvyjp9xPnYA-74Ss-xC-100" edge="1">
          <mxGeometry relative="1" as="geometry" />
        </mxCell>
        <mxCell id="7mvyjp9xPnYA-74Ss-xC-97" value="VLANNetworkManager&lt;br&gt;triggerCreateVLANNetwork" style="rounded=0;whiteSpace=wrap;html=1;fontSize=10;fillColor=#dae8fc;strokeColor=#6c8ebf;" parent="1" vertex="1">
          <mxGeometry x="540" y="170" width="120" height="60" as="geometry" />
        </mxCell>
        <mxCell id="7mvyjp9xPnYA-74Ss-xC-103" value="" style="edgeStyle=orthogonalEdgeStyle;rounded=0;orthogonalLoop=1;jettySize=auto;html=1;fontSize=10;" parent="1" source="7mvyjp9xPnYA-74Ss-xC-100" target="7mvyjp9xPnYA-74Ss-xC-102" edge="1">
          <mxGeometry relative="1" as="geometry" />
        </mxCell>
        <mxCell id="7mvyjp9xPnYA-74Ss-xC-100" value="&lt;span style=&quot;font-size: 12px&quot;&gt;VLANNetworkUtil&lt;br&gt;unlock&lt;/span&gt;" style="rounded=0;whiteSpace=wrap;html=1;fontSize=10;" parent="1" vertex="1">
          <mxGeometry x="340" y="170" width="120" height="60" as="geometry" />
        </mxCell>
        <mxCell id="7mvyjp9xPnYA-74Ss-xC-108" value="" style="edgeStyle=orthogonalEdgeStyle;curved=1;rounded=0;orthogonalLoop=1;jettySize=auto;html=1;fontSize=10;" parent="1" source="7mvyjp9xPnYA-74Ss-xC-102" target="7mvyjp9xPnYA-74Ss-xC-107" edge="1">
          <mxGeometry relative="1" as="geometry" />
        </mxCell>
        <mxCell id="7mvyjp9xPnYA-74Ss-xC-102" value="VLANNetworkService&lt;br&gt;logCreateVLANNetwork" style="rounded=0;whiteSpace=wrap;html=1;fontSize=10;" parent="1" vertex="1">
          <mxGeometry x="340" y="280" width="120" height="60" as="geometry" />
        </mxCell>
        <mxCell id="7mvyjp9xPnYA-74Ss-xC-107" value="reply" style="rounded=0;whiteSpace=wrap;html=1;fontSize=10;" parent="1" vertex="1">
          <mxGeometry x="540" y="280" width="120" height="60" as="geometry" />
        </mxCell>
        <mxCell id="7mvyjp9xPnYA-74Ss-xC-112" value="" style="edgeStyle=orthogonalEdgeStyle;curved=1;rounded=0;orthogonalLoop=1;jettySize=auto;html=1;fontSize=10;strokeColor=#6c8ebf;fillColor=#dae8fc;exitX=0.5;exitY=1;exitDx=0;exitDy=0;" parent="1" source="Le4Tirno8PLqzlybWpBK-2" target="7mvyjp9xPnYA-74Ss-xC-111" edge="1">
          <mxGeometry relative="1" as="geometry">
            <mxPoint x="950" y="520" as="sourcePoint" />
          </mxGeometry>
        </mxCell>
        <mxCell id="7mvyjp9xPnYA-74Ss-xC-117" value="" style="edgeStyle=orthogonalEdgeStyle;curved=1;rounded=0;orthogonalLoop=1;jettySize=auto;html=1;fontSize=10;strokeColor=#A9C4EB;" parent="1" source="7mvyjp9xPnYA-74Ss-xC-111" target="7mvyjp9xPnYA-74Ss-xC-116" edge="1">
          <mxGeometry relative="1" as="geometry" />
        </mxCell>
        <mxCell id="7mvyjp9xPnYA-74Ss-xC-111" value="Create&amp;nbsp; VLAN&amp;nbsp; in ES" style="whiteSpace=wrap;html=1;fontSize=10;fillColor=#dae8fc;strokeColor=#6c8ebf;" parent="1" vertex="1">
          <mxGeometry x="890" y="560" width="120" height="60" as="geometry" />
        </mxCell>
        <mxCell id="7mvyjp9xPnYA-74Ss-xC-119" value="" style="edgeStyle=orthogonalEdgeStyle;curved=1;rounded=0;orthogonalLoop=1;jettySize=auto;html=1;fontSize=10;strokeColor=#A9C4EB;" parent="1" source="7mvyjp9xPnYA-74Ss-xC-116" target="7mvyjp9xPnYA-74Ss-xC-118" edge="1">
          <mxGeometry relative="1" as="geometry" />
        </mxCell>
        <mxCell id="7mvyjp9xPnYA-74Ss-xC-121" value="" style="edgeStyle=orthogonalEdgeStyle;curved=1;rounded=0;orthogonalLoop=1;jettySize=auto;html=1;fontSize=10;strokeColor=#A9C4EB;dashed=1;" parent="1" source="7mvyjp9xPnYA-74Ss-xC-116" target="7mvyjp9xPnYA-74Ss-xC-120" edge="1">
          <mxGeometry relative="1" as="geometry" />
        </mxCell>
        <mxCell id="7mvyjp9xPnYA-74Ss-xC-116" value="Start create VLAN thread" style="whiteSpace=wrap;html=1;fontSize=10;fillColor=#dae8fc;strokeColor=#6c8ebf;" parent="1" vertex="1">
          <mxGeometry x="890" y="660" width="120" height="60" as="geometry" />
        </mxCell>
        <mxCell id="7mvyjp9xPnYA-74Ss-xC-118" value="&lt;span style=&quot;font-size: 12px&quot;&gt;VLANNetworkUtil&lt;/span&gt;&lt;br style=&quot;font-size: 12px&quot;&gt;&lt;span style=&quot;font-size: 12px&quot;&gt;unlock&lt;/span&gt;" style="whiteSpace=wrap;html=1;fontSize=10;" parent="1" vertex="1">
          <mxGeometry x="890" y="770" width="120" height="60" as="geometry" />
        </mxCell>
        <mxCell id="7mvyjp9xPnYA-74Ss-xC-123" value="" style="edgeStyle=orthogonalEdgeStyle;curved=1;rounded=0;orthogonalLoop=1;jettySize=auto;html=1;fontSize=10;strokeColor=#A9C4EB;" parent="1" source="7mvyjp9xPnYA-74Ss-xC-120" target="7mvyjp9xPnYA-74Ss-xC-122" edge="1">
          <mxGeometry relative="1" as="geometry" />
        </mxCell>
        <mxCell id="7mvyjp9xPnYA-74Ss-xC-120" value="doThreadServiceCreate" style="whiteSpace=wrap;html=1;fontSize=10;fillColor=#dae8fc;strokeColor=#6c8ebf;" parent="1" vertex="1">
          <mxGeometry x="1090" y="660" width="120" height="60" as="geometry" />
        </mxCell>
        <mxCell id="7mvyjp9xPnYA-74Ss-xC-125" value="" style="edgeStyle=orthogonalEdgeStyle;curved=1;rounded=0;orthogonalLoop=1;jettySize=auto;html=1;fontSize=10;strokeColor=#A9C4EB;" parent="1" source="7mvyjp9xPnYA-74Ss-xC-122" target="7mvyjp9xPnYA-74Ss-xC-124" edge="1">
          <mxGeometry relative="1" as="geometry" />
        </mxCell>
        <mxCell id="7mvyjp9xPnYA-74Ss-xC-122" value="getServiceListByEntity" style="whiteSpace=wrap;html=1;fontSize=10;fillColor=#dae8fc;strokeColor=#6c8ebf;" parent="1" vertex="1">
          <mxGeometry x="1260" y="660" width="120" height="60" as="geometry" />
        </mxCell>
        <mxCell id="7mvyjp9xPnYA-74Ss-xC-127" value="" style="edgeStyle=orthogonalEdgeStyle;curved=1;rounded=0;orthogonalLoop=1;jettySize=auto;html=1;fontSize=10;strokeColor=#A9C4EB;" parent="1" source="7mvyjp9xPnYA-74Ss-xC-124" target="7mvyjp9xPnYA-74Ss-xC-126" edge="1">
          <mxGeometry relative="1" as="geometry" />
        </mxCell>
        <mxCell id="7mvyjp9xPnYA-74Ss-xC-124" value="createVLANNetwork for each service by tread pool" style="whiteSpace=wrap;html=1;fontSize=10;fillColor=#dae8fc;strokeColor=#6c8ebf;" parent="1" vertex="1">
          <mxGeometry x="1260" y="760" width="120" height="60" as="geometry" />
        </mxCell>
        <mxCell id="7mvyjp9xPnYA-74Ss-xC-126" value="updateUsage" style="whiteSpace=wrap;html=1;fontSize=10;fillColor=#dae8fc;strokeColor=#6c8ebf;" parent="1" vertex="1">
          <mxGeometry x="1090" y="760" width="120" height="60" as="geometry" />
        </mxCell>
        <mxCell id="Le4Tirno8PLqzlybWpBK-1" value="Validation" style="ellipse;shape=doubleEllipse;html=1;dashed=0;whitespace=wrap;aspect=fixed;fillColor=#ffe6cc;strokeColor=#d79b00;" parent="1" vertex="1">
          <mxGeometry x="140" y="450" width="60" height="60" as="geometry" />
        </mxCell>
        <mxCell id="Le4Tirno8PLqzlybWpBK-2" value="&lt;span style=&quot;font-size: 10px&quot;&gt;Create &lt;br&gt;Network&lt;/span&gt;" style="ellipse;shape=doubleEllipse;html=1;dashed=0;whitespace=wrap;aspect=fixed;fillColor=#dae8fc;strokeColor=#6c8ebf;" parent="1" vertex="1">
          <mxGeometry x="920" y="460" width="60" height="60" as="geometry" />
        </mxCell>
      </root>
    </mxGraphModel>
  </diagram>
  <diagram id="lfdbjEoLifJyDJFXSqJd" name="第 2 页">
    <mxGraphModel dx="1422" dy="705" grid="1" gridSize="10" guides="1" tooltips="1" connect="1" arrows="1" fold="1" page="1" pageScale="1" pageWidth="850" pageHeight="1100" math="0" shadow="0">
      <root>
        <mxCell id="0" />
        <mxCell id="1" parent="0" />
        <mxCell id="20sGmdqy_mmukyWSxmFM-1" value="" style="edgeStyle=orthogonalEdgeStyle;rounded=0;orthogonalLoop=1;jettySize=auto;html=1;fontSize=10;fillColor=#cdeb8b;strokeColor=#36393d;" parent="1" source="20sGmdqy_mmukyWSxmFM-2" target="20sGmdqy_mmukyWSxmFM-3" edge="1">
          <mxGeometry relative="1" as="geometry" />
        </mxCell>
        <mxCell id="20sGmdqy_mmukyWSxmFM-2" value="POST /api/v2/networks" style="rounded=0;whiteSpace=wrap;html=1;fontSize=10;fillColor=#cdeb8b;strokeColor=#36393d;" parent="1" vertex="1">
          <mxGeometry x="340" y="60" width="120" height="60" as="geometry" />
        </mxCell>
        <mxCell id="20sGmdqy_mmukyWSxmFM-3" value="Validate" style="rounded=0;whiteSpace=wrap;html=1;fontSize=10;fillColor=#cdeb8b;strokeColor=#36393d;" parent="1" vertex="1">
          <mxGeometry x="540" y="60" width="120" height="60" as="geometry" />
        </mxCell>
        <mxCell id="20sGmdqy_mmukyWSxmFM-4" value="" style="edgeStyle=orthogonalEdgeStyle;rounded=0;orthogonalLoop=1;jettySize=auto;html=1;fontSize=10;exitX=1;exitY=0.5;exitDx=0;exitDy=0;fillColor=#cdeb8b;strokeColor=#36393d;" parent="1" source="20sGmdqy_mmukyWSxmFM-3" target="20sGmdqy_mmukyWSxmFM-6" edge="1">
          <mxGeometry relative="1" as="geometry">
            <mxPoint x="660" y="90" as="sourcePoint" />
          </mxGeometry>
        </mxCell>
        <mxCell id="20sGmdqy_mmukyWSxmFM-5" value="" style="edgeStyle=orthogonalEdgeStyle;rounded=0;orthogonalLoop=1;jettySize=auto;html=1;fontSize=10;fillColor=#cdeb8b;strokeColor=#36393d;" parent="1" source="20sGmdqy_mmukyWSxmFM-6" target="20sGmdqy_mmukyWSxmFM-8" edge="1">
          <mxGeometry relative="1" as="geometry" />
        </mxCell>
        <mxCell id="20sGmdqy_mmukyWSxmFM-6" value="InitPpdmUsage" style="rounded=0;whiteSpace=wrap;html=1;fontSize=10;fillColor=#cdeb8b;strokeColor=#36393d;" parent="1" vertex="1">
          <mxGeometry x="740" y="60" width="120" height="60" as="geometry" />
        </mxCell>
        <mxCell id="20sGmdqy_mmukyWSxmFM-7" value="" style="edgeStyle=orthogonalEdgeStyle;rounded=0;orthogonalLoop=1;jettySize=auto;html=1;fontSize=10;fillColor=#cdeb8b;strokeColor=#36393d;" parent="1" source="20sGmdqy_mmukyWSxmFM-8" target="20sGmdqy_mmukyWSxmFM-10" edge="1">
          <mxGeometry relative="1" as="geometry" />
        </mxCell>
        <mxCell id="20sGmdqy_mmukyWSxmFM-8" value="InitSearchUsages" style="rounded=0;whiteSpace=wrap;html=1;fontSize=10;fillColor=#cdeb8b;strokeColor=#36393d;" parent="1" vertex="1">
          <mxGeometry x="740" y="170" width="120" height="60" as="geometry" />
        </mxCell>
        <mxCell id="20sGmdqy_mmukyWSxmFM-9" value="" style="edgeStyle=orthogonalEdgeStyle;rounded=0;orthogonalLoop=1;jettySize=auto;html=1;fontSize=10;fillColor=#cdeb8b;strokeColor=#36393d;" parent="1" source="20sGmdqy_mmukyWSxmFM-10" edge="1">
          <mxGeometry relative="1" as="geometry">
            <mxPoint x="460" y="200" as="targetPoint" />
          </mxGeometry>
        </mxCell>
        <mxCell id="20sGmdqy_mmukyWSxmFM-10" value="CreateVLANNetwork" style="rounded=0;whiteSpace=wrap;html=1;fontSize=10;fillColor=#cdeb8b;strokeColor=#36393d;" parent="1" vertex="1">
          <mxGeometry x="540" y="170" width="120" height="60" as="geometry" />
        </mxCell>
        <mxCell id="20sGmdqy_mmukyWSxmFM-14" value="CreateAuditLog" style="rounded=0;whiteSpace=wrap;html=1;fontSize=10;fillColor=#cdeb8b;strokeColor=#36393d;" parent="1" vertex="1">
          <mxGeometry x="340" y="170" width="120" height="60" as="geometry" />
        </mxCell>
        <mxCell id="dPbZzxfVhBw0Ixa6P9Zo-1" value="VLANNetworkSyncedValidator" style="whiteSpace=wrap;html=1;fillColor=#ffe6cc;strokeColor=#d79b00;" parent="1" vertex="1">
          <mxGeometry x="320" y="480" width="180" height="60" as="geometry" />
        </mxCell>
        <mxCell id="dPbZzxfVhBw0Ixa6P9Zo-2" value="VLANNetworksSyntaxValidator" style="whiteSpace=wrap;html=1;fillColor=#ffe6cc;strokeColor=#d79b00;" parent="1" vertex="1">
          <mxGeometry x="320" y="600" width="180" height="60" as="geometry" />
        </mxCell>
        <mxCell id="dPbZzxfVhBw0Ixa6P9Zo-3" value="PrerequisiteValidator" style="whiteSpace=wrap;html=1;fillColor=#ffe6cc;strokeColor=#d79b00;" parent="1" vertex="1">
          <mxGeometry x="320" y="720" width="180" height="60" as="geometry" />
        </mxCell>
        <mxCell id="dPbZzxfVhBw0Ixa6P9Zo-4" value="VLANNetworkPostValidator" style="whiteSpace=wrap;html=1;fillColor=#ffe6cc;strokeColor=#d79b00;" parent="1" vertex="1">
          <mxGeometry x="320" y="840" width="180" height="60" as="geometry" />
        </mxCell>
        <mxCell id="dPbZzxfVhBw0Ixa6P9Zo-5" value="VLANNetworkIpsValidator" style="whiteSpace=wrap;html=1;fillColor=#ffe6cc;strokeColor=#d79b00;" parent="1" vertex="1">
          <mxGeometry x="320" y="960" width="180" height="60" as="geometry" />
        </mxCell>
      </root>
    </mxGraphModel>
  </diagram>
  <diagram id="fuBVYSjKyOdNmZUHzTdF" name="proxydeploy">
    <mxGraphModel dx="1422" dy="705" grid="1" gridSize="10" guides="1" tooltips="1" connect="1" arrows="1" fold="1" page="1" pageScale="1" pageWidth="850" pageHeight="1100" math="0" shadow="0">
      <root>
        <mxCell id="0" />
        <mxCell id="1" parent="0" />
        <mxCell id="BAK3HmrcA5luk7s7HqNo-1" value="" style="edgeStyle=orthogonalEdgeStyle;rounded=0;orthogonalLoop=1;jettySize=auto;html=1;exitX=0.5;exitY=1;exitDx=0;exitDy=0;" parent="1" source="5qmG_a-MGmky9MYRdmhd-1" target="BAK3HmrcA5luk7s7HqNo-5" edge="1">
          <mxGeometry relative="1" as="geometry">
            <mxPoint x="240" y="230" as="sourcePoint" />
          </mxGeometry>
        </mxCell>
        <mxCell id="BAK3HmrcA5luk7s7HqNo-3" value="" style="edgeStyle=orthogonalEdgeStyle;rounded=0;orthogonalLoop=1;jettySize=auto;html=1;" parent="1" source="BAK3HmrcA5luk7s7HqNo-5" target="BAK3HmrcA5luk7s7HqNo-6" edge="1">
          <mxGeometry relative="1" as="geometry" />
        </mxCell>
        <mxCell id="BAK3HmrcA5luk7s7HqNo-4" value="" style="edgeStyle=orthogonalEdgeStyle;rounded=0;orthogonalLoop=1;jettySize=auto;html=1;" parent="1" source="BAK3HmrcA5luk7s7HqNo-5" target="BAK3HmrcA5luk7s7HqNo-9" edge="1">
          <mxGeometry relative="1" as="geometry" />
        </mxCell>
        <mxCell id="BAK3HmrcA5luk7s7HqNo-5" value="&lt;span style=&quot;color: rgb(23 , 43 , 77) ; font-size: 14px ; font-style: normal ; font-weight: 400 ; letter-spacing: normal ; text-align: left ; text-indent: 0px ; text-transform: none ; word-spacing: 0px ; background-color: rgb(255 , 255 , 255) ; display: inline ; float: none&quot;&gt;Reserve IP Resources&lt;/span&gt;" style="whiteSpace=wrap;html=1;" parent="1" vertex="1">
          <mxGeometry x="180" y="320" width="120" height="60" as="geometry" />
        </mxCell>
        <mxCell id="BAK3HmrcA5luk7s7HqNo-6" value="&lt;h1&gt;&lt;a href=&quot;https://next.stoplight.io/dellemc/ecdm/version/19.5/sysmgr.oas2.yml?view=/appliance-management-api/updateusages&quot; class=&quot;external-link&quot; style=&quot;font-weight: 400 ; color: rgb(0 , 82 , 204) ; font-family: , &amp;quot;blinkmacsystemfont&amp;quot; , &amp;quot;segoe ui&amp;quot; , &amp;quot;roboto&amp;quot; , &amp;quot;oxygen&amp;quot; , &amp;quot;ubuntu&amp;quot; , &amp;quot;fira sans&amp;quot; , &amp;quot;droid sans&amp;quot; , &amp;quot;helvetica neue&amp;quot; , sans-serif ; font-size: 14px ; background-color: rgb(255 , 255 , 255)&quot;&gt;PATCH&lt;/a&gt;&lt;br&gt;&lt;/h1&gt;&lt;p&gt;&lt;a href=&quot;https://next.stoplight.io/dellemc/ecdm/version/19.5/sysmgr.oas2.yml?view=/appliance-management-api/updateusages&quot; class=&quot;external-link&quot; style=&quot;color: rgb(0 , 82 , 204) ; font-family: , &amp;quot;blinkmacsystemfont&amp;quot; , &amp;quot;segoe ui&amp;quot; , &amp;quot;roboto&amp;quot; , &amp;quot;oxygen&amp;quot; , &amp;quot;ubuntu&amp;quot; , &amp;quot;fira sans&amp;quot; , &amp;quot;droid sans&amp;quot; , &amp;quot;helvetica neue&amp;quot; , sans-serif ; font-size: 14px ; background-color: rgb(255 , 255 , 255)&quot;&gt;/api/v2/networks/{id}/usages&lt;/a&gt;&lt;br&gt;&lt;/p&gt;" style="text;html=1;strokeColor=none;fillColor=none;spacing=5;spacingTop=-20;whiteSpace=wrap;overflow=hidden;rounded=0;" parent="1" vertex="1">
          <mxGeometry x="400" y="310" width="190" height="80" as="geometry" />
        </mxCell>
        <mxCell id="BAK3HmrcA5luk7s7HqNo-7" value="" style="edgeStyle=orthogonalEdgeStyle;rounded=0;orthogonalLoop=1;jettySize=auto;html=1;" parent="1" source="BAK3HmrcA5luk7s7HqNo-9" target="BAK3HmrcA5luk7s7HqNo-11" edge="1">
          <mxGeometry relative="1" as="geometry" />
        </mxCell>
        <mxCell id="BAK3HmrcA5luk7s7HqNo-8" value="" style="edgeStyle=orthogonalEdgeStyle;rounded=0;orthogonalLoop=1;jettySize=auto;html=1;fontSize=14;fontColor=none;" parent="1" source="BAK3HmrcA5luk7s7HqNo-9" target="BAK3HmrcA5luk7s7HqNo-15" edge="1">
          <mxGeometry relative="1" as="geometry" />
        </mxCell>
        <mxCell id="BAK3HmrcA5luk7s7HqNo-9" value="&lt;span style=&quot;color: rgb(23 , 43 , 77) ; font-size: 14px ; font-style: normal ; font-weight: 400 ; letter-spacing: normal ; text-align: left ; text-indent: 0px ; text-transform: none ; word-spacing: 0px ; background-color: rgb(255 , 255 , 255) ; display: inline ; float: none&quot;&gt;Deploy vProxy/Search&lt;/span&gt;" style="whiteSpace=wrap;html=1;" parent="1" vertex="1">
          <mxGeometry x="180" y="460" width="120" height="60" as="geometry" />
        </mxCell>
        <mxCell id="BAK3HmrcA5luk7s7HqNo-10" value="" style="edgeStyle=orthogonalEdgeStyle;rounded=0;orthogonalLoop=1;jettySize=auto;html=1;" parent="1" source="BAK3HmrcA5luk7s7HqNo-11" edge="1">
          <mxGeometry relative="1" as="geometry">
            <mxPoint x="400" y="707" as="targetPoint" />
          </mxGeometry>
        </mxCell>
        <mxCell id="BAK3HmrcA5luk7s7HqNo-11" value="&lt;span style=&quot;color: rgb(23 , 43 , 77) ; font-family: , &amp;#34;blinkmacsystemfont&amp;#34; , &amp;#34;segoe ui&amp;#34; , &amp;#34;roboto&amp;#34; , &amp;#34;oxygen&amp;#34; , &amp;#34;ubuntu&amp;#34; , &amp;#34;fira sans&amp;#34; , &amp;#34;droid sans&amp;#34; , &amp;#34;helvetica neue&amp;#34; , sans-serif ; font-size: 14px ; text-align: left ; background-color: rgb(255 , 255 , 255)&quot;&gt;Update IP usage&lt;/span&gt;" style="whiteSpace=wrap;html=1;fillColor=#ffe6cc;strokeColor=#d79b00;" parent="1" vertex="1">
          <mxGeometry x="180" y="677" width="120" height="60" as="geometry" />
        </mxCell>
        <mxCell id="BAK3HmrcA5luk7s7HqNo-12" value="&lt;h6&gt;&lt;span style=&quot;color: rgb(23 , 43 , 77) ; font-family: , &amp;#34;blinkmacsystemfont&amp;#34; , &amp;#34;segoe ui&amp;#34; , &amp;#34;roboto&amp;#34; , &amp;#34;oxygen&amp;#34; , &amp;#34;ubuntu&amp;#34; , &amp;#34;fira sans&amp;#34; , &amp;#34;droid sans&amp;#34; , &amp;#34;helvetica neue&amp;#34; , sans-serif ; font-size: 14px ; font-weight: 400 ; background-color: rgb(255 , 255 , 255)&quot;&gt;POST&lt;/span&gt;&lt;/h6&gt;&lt;h1&gt;&lt;font style=&quot;font-weight: normal ; font-size: 14px&quot;&gt;/api/v2/networks/update-usage&lt;/font&gt;&lt;/h1&gt;" style="text;html=1;strokeColor=none;fillColor=none;spacing=6;spacingTop=-16;whiteSpace=wrap;overflow=hidden;rounded=0;verticalAlign=middle;" parent="1" vertex="1">
          <mxGeometry x="400" y="667" width="346" height="80" as="geometry" />
        </mxCell>
        <mxCell id="BAK3HmrcA5luk7s7HqNo-13" value="" style="edgeStyle=orthogonalEdgeStyle;rounded=0;orthogonalLoop=1;jettySize=auto;html=1;fontSize=14;fontColor=none;" parent="1" source="BAK3HmrcA5luk7s7HqNo-15" target="BAK3HmrcA5luk7s7HqNo-16" edge="1">
          <mxGeometry relative="1" as="geometry" />
        </mxCell>
        <mxCell id="BAK3HmrcA5luk7s7HqNo-14" value="" style="edgeStyle=orthogonalEdgeStyle;rounded=0;orthogonalLoop=1;jettySize=auto;html=1;fontSize=14;fontColor=none;" parent="1" source="BAK3HmrcA5luk7s7HqNo-15" target="BAK3HmrcA5luk7s7HqNo-18" edge="1">
          <mxGeometry relative="1" as="geometry" />
        </mxCell>
        <mxCell id="BAK3HmrcA5luk7s7HqNo-15" value="&lt;span style=&quot;color: rgb(23 , 43 , 77) ; font-size: 14px ; font-style: normal ; font-weight: 400 ; letter-spacing: normal ; text-align: left ; text-indent: 0px ; text-transform: none ; word-spacing: 0px ; background-color: rgb(255 , 255 , 255) ; display: inline ; float: none&quot;&gt;&lt;span style=&quot;font-family: , &amp;#34;blinkmacsystemfont&amp;#34; , &amp;#34;segoe ui&amp;#34; , &amp;#34;roboto&amp;#34; , &amp;#34;oxygen&amp;#34; , &amp;#34;ubuntu&amp;#34; , &amp;#34;fira sans&amp;#34; , &amp;#34;droid sans&amp;#34; , &amp;#34;helvetica neue&amp;#34; , sans-serif&quot;&gt;Startup&lt;br&gt;&lt;/span&gt;&amp;nbsp;vProxy/Search&lt;/span&gt;" style="whiteSpace=wrap;html=1;" parent="1" vertex="1">
          <mxGeometry x="380" y="460" width="120" height="60" as="geometry" />
        </mxCell>
        <mxCell id="BAK3HmrcA5luk7s7HqNo-16" value="&lt;span style=&quot;color: rgb(23 , 43 , 77) ; font-family: , &amp;#34;blinkmacsystemfont&amp;#34; , &amp;#34;segoe ui&amp;#34; , &amp;#34;roboto&amp;#34; , &amp;#34;oxygen&amp;#34; , &amp;#34;ubuntu&amp;#34; , &amp;#34;fira sans&amp;#34; , &amp;#34;droid sans&amp;#34; , &amp;#34;helvetica neue&amp;#34; , sans-serif ; font-size: 14px ; text-align: left ; background-color: rgb(255 , 255 , 255)&quot;&gt;Check ip-usage&lt;/span&gt;" style="ellipse;whiteSpace=wrap;html=1;" parent="1" vertex="1">
          <mxGeometry x="580" y="460" width="120" height="60" as="geometry" />
        </mxCell>
        <mxCell id="BAK3HmrcA5luk7s7HqNo-17" value="" style="edgeStyle=orthogonalEdgeStyle;rounded=0;orthogonalLoop=1;jettySize=auto;html=1;fontSize=14;fontColor=none;" parent="1" source="BAK3HmrcA5luk7s7HqNo-18" target="BAK3HmrcA5luk7s7HqNo-19" edge="1">
          <mxGeometry relative="1" as="geometry" />
        </mxCell>
        <mxCell id="BAK3HmrcA5luk7s7HqNo-18" value="&lt;span style=&quot;color: rgb(23 , 43 , 77) ; font-size: 14px ; font-style: normal ; font-weight: 400 ; letter-spacing: normal ; text-align: left ; text-indent: 0px ; text-transform: none ; word-spacing: 0px ; background-color: rgb(255 , 255 , 255) ; display: inline ; float: none&quot;&gt;&lt;span style=&quot;font-family: , &amp;#34;blinkmacsystemfont&amp;#34; , &amp;#34;segoe ui&amp;#34; , &amp;#34;roboto&amp;#34; , &amp;#34;oxygen&amp;#34; , &amp;#34;ubuntu&amp;#34; , &amp;#34;fira sans&amp;#34; , &amp;#34;droid sans&amp;#34; , &amp;#34;helvetica neue&amp;#34; , sans-serif&quot;&gt;Delete&lt;br&gt;&lt;/span&gt;&amp;nbsp;vProxy/Search&lt;/span&gt;" style="whiteSpace=wrap;html=1;" parent="1" vertex="1">
          <mxGeometry x="380" y="560" width="120" height="60" as="geometry" />
        </mxCell>
        <mxCell id="BAK3HmrcA5luk7s7HqNo-19" value="&lt;span style=&quot;color: rgb(23 , 43 , 77) ; font-size: 14px ; text-align: left ; background-color: rgb(255 , 255 , 255)&quot;&gt;Release reserved IP addresses&lt;/span&gt;" style="ellipse;whiteSpace=wrap;html=1;" parent="1" vertex="1">
          <mxGeometry x="580" y="560" width="120" height="60" as="geometry" />
        </mxCell>
        <mxCell id="5qmG_a-MGmky9MYRdmhd-1" value="" style="ellipse;shape=doubleEllipse;html=1;dashed=0;whitespace=wrap;aspect=fixed;" parent="1" vertex="1">
          <mxGeometry x="210" y="160" width="60" height="60" as="geometry" />
        </mxCell>
      </root>
    </mxGraphModel>
  </diagram>
  <diagram id="ZU9bRguUQLTD2ygrQMHo" name="storageinterface">
    <mxGraphModel dx="1422" dy="705" grid="1" gridSize="10" guides="1" tooltips="1" connect="1" arrows="1" fold="1" page="1" pageScale="1" pageWidth="850" pageHeight="1100" math="0" shadow="0">
      <root>
        <mxCell id="0" />
        <mxCell id="1" parent="0" />
        <mxCell id="XZnhpBW9bZ-NEzeSc0dh-1" value="N" style="edgeStyle=orthogonalEdgeStyle;rounded=0;orthogonalLoop=1;jettySize=auto;html=1;exitX=0.5;exitY=1;exitDx=0;exitDy=0;entryX=0.5;entryY=0;entryDx=0;entryDy=0;strokeWidth=2;" parent="1" source="3qcni7ebYvSLAds3ZBvE-4" target="3qcni7ebYvSLAds3ZBvE-10" edge="1">
          <mxGeometry relative="1" as="geometry" />
        </mxCell>
        <mxCell id="3qcni7ebYvSLAds3ZBvE-3" value="" style="edgeStyle=orthogonalEdgeStyle;curved=1;rounded=0;orthogonalLoop=1;jettySize=auto;html=1;fontSize=10;strokeColor=#000000;strokeWidth=2;" parent="1" source="3qcni7ebYvSLAds3ZBvE-1" target="3qcni7ebYvSLAds3ZBvE-2" edge="1">
          <mxGeometry relative="1" as="geometry" />
        </mxCell>
        <mxCell id="3qcni7ebYvSLAds3ZBvE-1" value="" style="ellipse;shape=doubleEllipse;html=1;dashed=0;whitespace=wrap;aspect=fixed;fontSize=10;" parent="1" vertex="1">
          <mxGeometry x="110" y="135" width="30" height="30" as="geometry" />
        </mxCell>
        <mxCell id="3qcni7ebYvSLAds3ZBvE-5" value="Y" style="edgeStyle=orthogonalEdgeStyle;curved=1;rounded=0;orthogonalLoop=1;jettySize=auto;html=1;fontSize=10;strokeColor=#000000;strokeWidth=2;" parent="1" source="3qcni7ebYvSLAds3ZBvE-2" target="3qcni7ebYvSLAds3ZBvE-4" edge="1">
          <mxGeometry relative="1" as="geometry" />
        </mxCell>
        <mxCell id="3qcni7ebYvSLAds3ZBvE-11" value="N" style="edgeStyle=orthogonalEdgeStyle;curved=1;rounded=0;orthogonalLoop=1;jettySize=auto;html=1;fontSize=10;strokeColor=#000000;strokeWidth=2;" parent="1" source="3qcni7ebYvSLAds3ZBvE-2" target="3qcni7ebYvSLAds3ZBvE-10" edge="1">
          <mxGeometry relative="1" as="geometry" />
        </mxCell>
        <mxCell id="3qcni7ebYvSLAds3ZBvE-2" value="Assigned asset preferred network" style="rhombus;whiteSpace=wrap;html=1;fontSize=10;dashed=0;fillColor=#dae8fc;strokeColor=#6c8ebf;" parent="1" vertex="1">
          <mxGeometry x="210" y="110" width="110" height="80" as="geometry" />
        </mxCell>
        <mxCell id="3qcni7ebYvSLAds3ZBvE-7" value="Y" style="edgeStyle=orthogonalEdgeStyle;curved=1;rounded=0;orthogonalLoop=1;jettySize=auto;html=1;fontSize=10;strokeColor=#000000;strokeWidth=2;" parent="1" source="3qcni7ebYvSLAds3ZBvE-4" target="3qcni7ebYvSLAds3ZBvE-6" edge="1">
          <mxGeometry relative="1" as="geometry" />
        </mxCell>
        <mxCell id="3qcni7ebYvSLAds3ZBvE-4" value="Asset preferred &lt;br&gt;network interface&lt;br&gt;exist" style="rhombus;whiteSpace=wrap;html=1;fontSize=10;dashed=0;fillColor=#dae8fc;strokeColor=#6c8ebf;" parent="1" vertex="1">
          <mxGeometry x="385" y="110" width="110" height="80" as="geometry" />
        </mxCell>
        <mxCell id="3qcni7ebYvSLAds3ZBvE-22" style="edgeStyle=orthogonalEdgeStyle;curved=1;rounded=0;orthogonalLoop=1;jettySize=auto;html=1;exitX=0.5;exitY=1;exitDx=0;exitDy=0;entryX=0.5;entryY=0;entryDx=0;entryDy=0;fontSize=10;strokeColor=#000000;strokeWidth=2;" parent="1" source="3qcni7ebYvSLAds3ZBvE-6" target="3qcni7ebYvSLAds3ZBvE-18" edge="1">
          <mxGeometry relative="1" as="geometry" />
        </mxCell>
        <mxCell id="3qcni7ebYvSLAds3ZBvE-6" value="Return asset preferred network interface IP" style="whiteSpace=wrap;html=1;fontSize=10;dashed=0;fillColor=#dae8fc;strokeColor=#6c8ebf;" parent="1" vertex="1">
          <mxGeometry x="550" y="120" width="120" height="60" as="geometry" />
        </mxCell>
        <mxCell id="3qcni7ebYvSLAds3ZBvE-13" value="Y" style="edgeStyle=orthogonalEdgeStyle;curved=1;rounded=0;orthogonalLoop=1;jettySize=auto;html=1;fontSize=10;strokeColor=#000000;strokeWidth=2;" parent="1" source="3qcni7ebYvSLAds3ZBvE-10" target="3qcni7ebYvSLAds3ZBvE-12" edge="1">
          <mxGeometry relative="1" as="geometry" />
        </mxCell>
        <mxCell id="3qcni7ebYvSLAds3ZBvE-17" value="N" style="edgeStyle=orthogonalEdgeStyle;curved=1;rounded=0;orthogonalLoop=1;jettySize=auto;html=1;fontSize=10;strokeColor=#000000;strokeWidth=2;" parent="1" source="3qcni7ebYvSLAds3ZBvE-10" target="3qcni7ebYvSLAds3ZBvE-16" edge="1">
          <mxGeometry relative="1" as="geometry" />
        </mxCell>
        <mxCell id="3qcni7ebYvSLAds3ZBvE-10" value="Assigned policy preferred network" style="rhombus;whiteSpace=wrap;html=1;fontSize=10;dashed=0;fillColor=#f5f5f5;fontColor=#333333;strokeColor=#666666;" parent="1" vertex="1">
          <mxGeometry x="210" y="235" width="110" height="80" as="geometry" />
        </mxCell>
        <mxCell id="3qcni7ebYvSLAds3ZBvE-15" value="Y" style="edgeStyle=orthogonalEdgeStyle;rounded=0;orthogonalLoop=1;jettySize=auto;html=1;fontSize=10;strokeColor=#000000;strokeWidth=2;exitX=0.5;exitY=1;exitDx=0;exitDy=0;entryX=0;entryY=0.5;entryDx=0;entryDy=0;" parent="1" source="3qcni7ebYvSLAds3ZBvE-12" target="3qcni7ebYvSLAds3ZBvE-14" edge="1">
          <mxGeometry relative="1" as="geometry" />
        </mxCell>
        <mxCell id="XZnhpBW9bZ-NEzeSc0dh-2" value="N" style="edgeStyle=orthogonalEdgeStyle;rounded=0;orthogonalLoop=1;jettySize=auto;html=1;exitX=1;exitY=0.5;exitDx=0;exitDy=0;entryX=0.5;entryY=1;entryDx=0;entryDy=0;strokeWidth=2;" parent="1" source="3qcni7ebYvSLAds3ZBvE-12" target="3qcni7ebYvSLAds3ZBvE-16" edge="1">
          <mxGeometry relative="1" as="geometry" />
        </mxCell>
        <mxCell id="3qcni7ebYvSLAds3ZBvE-12" value="Policy preferred&lt;br&gt;network interface&lt;br&gt;exist" style="rhombus;whiteSpace=wrap;html=1;fontSize=10;dashed=0;fillColor=#d0cee2;strokeColor=#56517e;" parent="1" vertex="1">
          <mxGeometry x="210" y="354" width="110" height="80" as="geometry" />
        </mxCell>
        <mxCell id="3qcni7ebYvSLAds3ZBvE-20" style="edgeStyle=orthogonalEdgeStyle;rounded=0;orthogonalLoop=1;jettySize=auto;html=1;exitX=1;exitY=0.5;exitDx=0;exitDy=0;fontSize=10;strokeColor=#000000;entryX=0.5;entryY=1;entryDx=0;entryDy=0;strokeWidth=2;" parent="1" source="3qcni7ebYvSLAds3ZBvE-14" target="3qcni7ebYvSLAds3ZBvE-18" edge="1">
          <mxGeometry relative="1" as="geometry">
            <mxPoint x="760" y="235" as="targetPoint" />
          </mxGeometry>
        </mxCell>
        <mxCell id="3qcni7ebYvSLAds3ZBvE-14" value="&lt;span&gt;Return policy preferred network interface IP&lt;/span&gt;" style="whiteSpace=wrap;html=1;fontSize=10;dashed=0;fillColor=#d0cee2;strokeColor=#56517e;" parent="1" vertex="1">
          <mxGeometry x="380" y="434" width="120" height="60" as="geometry" />
        </mxCell>
        <mxCell id="3qcni7ebYvSLAds3ZBvE-23" style="edgeStyle=orthogonalEdgeStyle;curved=1;rounded=0;orthogonalLoop=1;jettySize=auto;html=1;exitX=1;exitY=0.5;exitDx=0;exitDy=0;fontSize=10;strokeColor=#000000;strokeWidth=2;" parent="1" source="3qcni7ebYvSLAds3ZBvE-16" target="3qcni7ebYvSLAds3ZBvE-18" edge="1">
          <mxGeometry relative="1" as="geometry" />
        </mxCell>
        <mxCell id="3qcni7ebYvSLAds3ZBvE-16" value="&lt;span style=&quot;color: rgb(0 , 0 , 0) ; font-family: &amp;#34;helvetica&amp;#34; ; font-size: 10px ; font-style: normal ; font-weight: 400 ; letter-spacing: normal ; text-align: center ; text-indent: 0px ; text-transform: none ; word-spacing: 0px ; background-color: rgb(248 , 249 , 250) ; display: inline ; float: none&quot;&gt;Return Storage first network interface IP&lt;/span&gt;" style="whiteSpace=wrap;html=1;fontSize=10;dashed=0;fillColor=#f5f5f5;fontColor=#333333;strokeColor=#666666;" parent="1" vertex="1">
          <mxGeometry x="380" y="245" width="120" height="60" as="geometry" />
        </mxCell>
        <mxCell id="3qcni7ebYvSLAds3ZBvE-18" value="" style="ellipse;html=1;shape=endState;fillColor=#000000;strokeColor=#ff0000;dashed=1;fontSize=10;" parent="1" vertex="1">
          <mxGeometry x="595" y="340" width="30" height="30" as="geometry" />
        </mxCell>
      </root>
    </mxGraphModel>
  </diagram>
  <diagram id="9jmrwmRpqvnQvpd8G_Te" name="Edit">
    <mxGraphModel dx="1422" dy="705" grid="1" gridSize="10" guides="1" tooltips="1" connect="1" arrows="1" fold="1" page="1" pageScale="1" pageWidth="850" pageHeight="1100" math="0" shadow="0">
      <root>
        <mxCell id="0" />
        <mxCell id="1" parent="0" />
        <mxCell id="BJRybewqX2Vq76QU8Wvr-3" value="" style="edgeStyle=orthogonalEdgeStyle;rounded=0;orthogonalLoop=1;jettySize=auto;html=1;" edge="1" parent="1" source="BJRybewqX2Vq76QU8Wvr-1" target="BJRybewqX2Vq76QU8Wvr-2">
          <mxGeometry relative="1" as="geometry" />
        </mxCell>
        <mxCell id="BJRybewqX2Vq76QU8Wvr-1" value="" style="ellipse;shape=doubleEllipse;html=1;dashed=0;whitespace=wrap;aspect=fixed;" vertex="1" parent="1">
          <mxGeometry x="280" y="60" width="60" height="60" as="geometry" />
        </mxCell>
        <mxCell id="BJRybewqX2Vq76QU8Wvr-5" value="Y" style="edgeStyle=orthogonalEdgeStyle;rounded=0;orthogonalLoop=1;jettySize=auto;html=1;" edge="1" parent="1" source="BJRybewqX2Vq76QU8Wvr-2" target="BJRybewqX2Vq76QU8Wvr-4">
          <mxGeometry relative="1" as="geometry" />
        </mxCell>
        <mxCell id="BJRybewqX2Vq76QU8Wvr-15" value="N" style="edgeStyle=orthogonalEdgeStyle;rounded=0;orthogonalLoop=1;jettySize=auto;html=1;" edge="1" parent="1" source="BJRybewqX2Vq76QU8Wvr-2" target="BJRybewqX2Vq76QU8Wvr-14">
          <mxGeometry relative="1" as="geometry" />
        </mxCell>
        <mxCell id="BJRybewqX2Vq76QU8Wvr-2" value="Validators" style="rhombus;whiteSpace=wrap;html=1;dashed=0;" vertex="1" parent="1">
          <mxGeometry x="270" y="190" width="80" height="80" as="geometry" />
        </mxCell>
        <mxCell id="BJRybewqX2Vq76QU8Wvr-7" value="Y" style="edgeStyle=orthogonalEdgeStyle;rounded=0;orthogonalLoop=1;jettySize=auto;html=1;" edge="1" parent="1" source="BJRybewqX2Vq76QU8Wvr-4" target="BJRybewqX2Vq76QU8Wvr-6">
          <mxGeometry relative="1" as="geometry" />
        </mxCell>
        <mxCell id="BJRybewqX2Vq76QU8Wvr-11" value="N" style="edgeStyle=orthogonalEdgeStyle;rounded=0;orthogonalLoop=1;jettySize=auto;html=1;" edge="1" parent="1" source="BJRybewqX2Vq76QU8Wvr-4" target="BJRybewqX2Vq76QU8Wvr-10">
          <mxGeometry relative="1" as="geometry" />
        </mxCell>
        <mxCell id="BJRybewqX2Vq76QU8Wvr-4" value="Any Field Change" style="rhombus;whiteSpace=wrap;html=1;dashed=0;" vertex="1" parent="1">
          <mxGeometry x="270" y="350" width="80" height="80" as="geometry" />
        </mxCell>
        <mxCell id="BJRybewqX2Vq76QU8Wvr-13" value="Y" style="edgeStyle=orthogonalEdgeStyle;rounded=0;orthogonalLoop=1;jettySize=auto;html=1;" edge="1" parent="1" source="BJRybewqX2Vq76QU8Wvr-6" target="BJRybewqX2Vq76QU8Wvr-12">
          <mxGeometry relative="1" as="geometry" />
        </mxCell>
        <mxCell id="BJRybewqX2Vq76QU8Wvr-17" value="" style="edgeStyle=orthogonalEdgeStyle;rounded=0;orthogonalLoop=1;jettySize=auto;html=1;" edge="1" parent="1" source="BJRybewqX2Vq76QU8Wvr-6" target="BJRybewqX2Vq76QU8Wvr-16">
          <mxGeometry relative="1" as="geometry" />
        </mxCell>
        <mxCell id="BJRybewqX2Vq76QU8Wvr-6" value="Is Default Network Change" style="rhombus;whiteSpace=wrap;html=1;dashed=0;" vertex="1" parent="1">
          <mxGeometry x="270" y="510" width="80" height="80" as="geometry" />
        </mxCell>
        <mxCell id="BJRybewqX2Vq76QU8Wvr-10" value="No changed, return 200" style="whiteSpace=wrap;html=1;dashed=0;" vertex="1" parent="1">
          <mxGeometry x="410" y="360" width="120" height="60" as="geometry" />
        </mxCell>
        <mxCell id="BJRybewqX2Vq76QU8Wvr-12" value="updateDefaultVLAN" style="whiteSpace=wrap;html=1;dashed=0;" vertex="1" parent="1">
          <mxGeometry x="410" y="520" width="120" height="60" as="geometry" />
        </mxCell>
        <mxCell id="BJRybewqX2Vq76QU8Wvr-14" value="Validate Error Retrurn 4xx" style="whiteSpace=wrap;html=1;dashed=0;" vertex="1" parent="1">
          <mxGeometry x="410" y="200" width="120" height="60" as="geometry" />
        </mxCell>
        <mxCell id="BJRybewqX2Vq76QU8Wvr-19" value="Y" style="edgeStyle=orthogonalEdgeStyle;rounded=0;orthogonalLoop=1;jettySize=auto;html=1;" edge="1" parent="1" source="BJRybewqX2Vq76QU8Wvr-16" target="BJRybewqX2Vq76QU8Wvr-18">
          <mxGeometry relative="1" as="geometry" />
        </mxCell>
        <mxCell id="BJRybewqX2Vq76QU8Wvr-21" value="" style="edgeStyle=orthogonalEdgeStyle;rounded=0;orthogonalLoop=1;jettySize=auto;html=1;" edge="1" parent="1" source="BJRybewqX2Vq76QU8Wvr-16" target="BJRybewqX2Vq76QU8Wvr-20">
          <mxGeometry relative="1" as="geometry" />
        </mxCell>
        <mxCell id="BJRybewqX2Vq76QU8Wvr-16" value="Only ES Update need" style="rhombus;whiteSpace=wrap;html=1;dashed=0;" vertex="1" parent="1">
          <mxGeometry x="270" y="670" width="80" height="80" as="geometry" />
        </mxCell>
        <mxCell id="BJRybewqX2Vq76QU8Wvr-18" value="Update vlanNetwork ES" style="whiteSpace=wrap;html=1;dashed=0;" vertex="1" parent="1">
          <mxGeometry x="410" y="680" width="120" height="60" as="geometry" />
        </mxCell>
        <mxCell id="BJRybewqX2Vq76QU8Wvr-20" value="updateVLAN&lt;br&gt;ByIPAddressFamilyChange" style="whiteSpace=wrap;html=1;dashed=0;" vertex="1" parent="1">
          <mxGeometry x="250" y="840" width="120" height="60" as="geometry" />
        </mxCell>
        <mxCell id="BJRybewqX2Vq76QU8Wvr-26" value="" style="edgeStyle=orthogonalEdgeStyle;rounded=0;orthogonalLoop=1;jettySize=auto;html=1;" edge="1" parent="1" source="BJRybewqX2Vq76QU8Wvr-22" target="BJRybewqX2Vq76QU8Wvr-25">
          <mxGeometry relative="1" as="geometry" />
        </mxCell>
        <mxCell id="BJRybewqX2Vq76QU8Wvr-22" value="Update VLAN" style="ellipse;shape=doubleEllipse;html=1;dashed=0;whitespace=wrap;aspect=fixed;" vertex="1" parent="1">
          <mxGeometry x="720" y="50" width="60" height="60" as="geometry" />
        </mxCell>
        <mxCell id="BJRybewqX2Vq76QU8Wvr-28" value="" style="edgeStyle=orthogonalEdgeStyle;rounded=0;orthogonalLoop=1;jettySize=auto;html=1;" edge="1" parent="1" source="BJRybewqX2Vq76QU8Wvr-25" target="BJRybewqX2Vq76QU8Wvr-27">
          <mxGeometry relative="1" as="geometry" />
        </mxCell>
        <mxCell id="BJRybewqX2Vq76QU8Wvr-25" value="updateStorageNetworkPurpose" style="whiteSpace=wrap;html=1;dashed=0;" vertex="1" parent="1">
          <mxGeometry x="690" y="140" width="120" height="60" as="geometry" />
        </mxCell>
        <mxCell id="BJRybewqX2Vq76QU8Wvr-27" value="Delete PPDM VLAN" style="whiteSpace=wrap;html=1;dashed=0;" vertex="1" parent="1">
          <mxGeometry x="690" y="280" width="120" height="60" as="geometry" />
        </mxCell>
      </root>
    </mxGraphModel>
  </diagram>
</mxfile>
